<svg height="45" viewBox="0 0 45 45" width="45"
    xmlns="http://www.w3.org/2000/svg"
    xmlns:xlink="http://www.w3.org/1999/xlink">

    <g fill="none" fill-rule="evenodd" transform="translate(-130 -27)">
        <g fill="#fff" transform="translate(130 27)">
            <path d="m22.4080949 42.0198132c-10.9674086 0-19.85824063-8.890832-19.85824063-19.8582406s8.89083203-19.85824059 19.85824063-19.85824059c10.9674085 0 19.858373 8.89083199 19.858373 19.85824059s-8.8909645 19.8582406-19.858373 19.8582406m0-41.82511924c-12.1319555 0-21.96687868 9.83492314-21.96687868 21.96687864s9.83492318 21.9668786 21.96687868 21.9668786c12.1319554 0 21.9670111-9.8349231 21.9670111-21.9668786s-9.8350557-21.96687864-21.9670111-21.96687864"/>
            <path d="m30.4003054 14.6922655 1.7235426-3.7731916h-13.5588964l-1.0630233 3.7731916z"/>
            <path d="m19.2768979 24.7283333 1.9458134-3.6868508h6.4010466l-1.7410373 3.6868508z"/>
            <path d="m14.4633757 33.1776318 2.09949-3.7382021h14.1334525l-1.7411632 3.7382021z"/>
            <path d="m17.3476729 10.919011-2.9309287 9.7006227 5.5454425.1121423-7.1178259 12.4435148 1.7921369-9.7806704h-5.42788813z"/>
        </g>
    </g>
</svg>
